<svg width="36" height="40" viewBox="0 0 36 40" fill="none" xmlns="http://www.w3.org/2000/svg">
<g id="Group">
<g id="Group_2">
<g id="Group_3">
<path id="Vector" d="M35.262 32.6964C31.0112 30.7767 30.8495 22.5368 30.8463 22.3289V16.8009C30.8463 11.4805 27.5952 6.90557 22.9753 4.95759C22.9653 2.22223 20.7375 0 18.0001 0C15.2627 0 13.0349 2.22236 13.0249 4.95746C8.40513 6.90544 5.15394 11.4804 5.15394 16.8008V22.3288C5.15094 22.5367 4.98911 30.7766 0.738183 32.6963C0.253934 32.915 -0.0122102 33.4422 0.0997508 33.9616C0.211581 34.4812 0.670994 34.8522 1.20243 34.8522H11.9789C12.1998 36.0675 12.7745 37.1981 13.6534 38.1139C14.8207 39.3301 16.3644 39.9999 17.9999 39.9999C19.6355 39.9999 21.1793 39.3301 22.3465 38.1139C23.2255 37.198 23.8001 36.0674 24.0209 34.8522H34.7974C35.3288 34.8522 35.7882 34.4812 35.9001 33.9616C36.0122 33.4422 35.7462 32.9151 35.262 32.6964ZM29.6624 28.749C30.1093 30.1038 30.742 31.4643 31.6393 32.5965H4.3608C5.25793 31.4644 5.89068 30.104 6.33754 28.749H29.6624ZM18.0001 2.25589C19.2383 2.25589 20.2853 3.08791 20.6129 4.22203C19.7689 4.047 18.8951 3.95471 18.0001 3.95471C17.1051 3.95471 16.2313 4.04694 15.3874 4.22203C15.715 3.08798 16.7619 2.25589 18.0001 2.25589ZM7.40983 22.3357V16.8007C7.40983 10.9613 12.1606 6.2106 18.0001 6.2106C23.8397 6.2106 28.5904 10.9613 28.5904 16.8007V22.3449C28.5919 22.5146 28.6183 24.2978 29.0677 26.493H6.93225C7.38192 24.2957 7.40846 22.5094 7.40983 22.3357ZM18.0001 37.7442C16.2785 37.7442 14.7759 36.5029 14.2936 34.8523H21.7065C21.2242 36.5029 19.7219 37.7442 18.0001 37.7442Z" fill="black"/>
<path id="Vector_2" d="M18.0001 7.79321C13.1472 7.79321 9.19897 11.7413 9.19897 16.5941C9.19897 17.2171 9.70401 17.7221 10.327 17.7221C10.9499 17.7221 11.4549 17.2171 11.4549 16.5941C11.4549 12.9852 14.3911 10.0491 18.0002 10.0491C18.6231 10.0491 19.1281 9.54407 19.1281 8.92112C19.1281 8.29812 18.623 7.79321 18.0001 7.79321Z" fill="black"/>
</g>
</g>
</g>
</svg>
